git<mxfile host="Electron" agent="Mozilla/5.0 (Windows NT 10.0; Win64; x64) AppleWebKit/537.36 (KHTML, like Gecko) draw.io/27.0.9 Chrome/134.0.6998.205 Electron/35.4.0 Safari/537.36" version="27.0.9">
  <diagram name="第 1 页" id="fRAPCwMe05P22jpZrTEM">
    <mxGraphModel dx="2466" dy="801" grid="1" gridSize="10" guides="1" tooltips="1" connect="1" arrows="1" fold="1" page="0" pageScale="1" pageWidth="827" pageHeight="1169" math="0" shadow="0">
      <root>
        <mxCell id="0" />
        <mxCell id="1" parent="0" />
        <mxCell id="z7QBV5NxAyAJbgT73YyX-11" value="" style="rounded=1;whiteSpace=wrap;html=1;fillColor=none;dashed=1;" vertex="1" parent="1">
          <mxGeometry x="170" y="450" width="520" height="250" as="geometry" />
        </mxCell>
        <mxCell id="z7QBV5NxAyAJbgT73YyX-62" style="edgeStyle=orthogonalEdgeStyle;rounded=0;orthogonalLoop=1;jettySize=auto;html=1;entryX=0;entryY=0.5;entryDx=0;entryDy=0;" edge="1" parent="1" source="z7QBV5NxAyAJbgT73YyX-1" target="z7QBV5NxAyAJbgT73YyX-11">
          <mxGeometry relative="1" as="geometry" />
        </mxCell>
        <mxCell id="z7QBV5NxAyAJbgT73YyX-1" value="" style="rounded=1;whiteSpace=wrap;html=1;fillColor=none;dashed=1;" vertex="1" parent="1">
          <mxGeometry x="-390" y="570" width="370" height="250" as="geometry" />
        </mxCell>
        <mxCell id="z7QBV5NxAyAJbgT73YyX-2" value="API Schema Parsing" style="text;whiteSpace=wrap;fontSize=18;fontStyle=1" vertex="1" parent="1">
          <mxGeometry x="-300" y="530" width="250" height="40" as="geometry" />
        </mxCell>
        <mxCell id="z7QBV5NxAyAJbgT73YyX-3" value="" style="image;aspect=fixed;perimeter=ellipsePerimeter;html=1;align=center;shadow=0;dashed=0;spacingTop=3;image=img/lib/active_directory/documents.svg;" vertex="1" parent="1">
          <mxGeometry x="-340" y="640" width="33" height="50" as="geometry" />
        </mxCell>
        <mxCell id="z7QBV5NxAyAJbgT73YyX-4" value="MDN DOC" style="text;whiteSpace=wrap;fontSize=14;fontStyle=1" vertex="1" parent="1">
          <mxGeometry x="-360" y="690" width="110" height="40" as="geometry" />
        </mxCell>
        <mxCell id="z7QBV5NxAyAJbgT73YyX-5" value="" style="image;aspect=fixed;perimeter=ellipsePerimeter;html=1;align=center;shadow=0;dashed=0;spacingTop=3;image=img/lib/active_directory/cd_dvd.svg;" vertex="1" parent="1">
          <mxGeometry x="-200" y="590" width="50" height="50" as="geometry" />
        </mxCell>
        <mxCell id="z7QBV5NxAyAJbgT73YyX-6" value="IDB Schema Data" style="text;whiteSpace=wrap;fontSize=14;fontStyle=1" vertex="1" parent="1">
          <mxGeometry x="-235" y="640" width="120" height="40" as="geometry" />
        </mxCell>
        <mxCell id="z7QBV5NxAyAJbgT73YyX-7" value="SchemaInstacneTree" style="text;whiteSpace=wrap;fontSize=14;fontStyle=1" vertex="1" parent="1">
          <mxGeometry x="-261.5" y="790" width="120" height="40" as="geometry" />
        </mxCell>
        <mxCell id="z7QBV5NxAyAJbgT73YyX-8" value="" style="image;aspect=fixed;perimeter=ellipsePerimeter;html=1;align=center;shadow=0;dashed=0;spacingTop=3;image=img/lib/active_directory/site_collection.svg;" vertex="1" parent="1">
          <mxGeometry x="-206.5" y="750" width="50" height="47" as="geometry" />
        </mxCell>
        <mxCell id="z7QBV5NxAyAJbgT73YyX-9" value="" style="html=1;shadow=0;dashed=0;align=center;verticalAlign=middle;shape=mxgraph.arrows2.stylisedArrow;dy=0.6;dx=40;notch=15;feather=0.4;rotation=-30;" vertex="1" parent="1">
          <mxGeometry x="-310" y="620" width="107" height="30" as="geometry" />
        </mxCell>
        <mxCell id="z7QBV5NxAyAJbgT73YyX-10" value="" style="html=1;shadow=0;dashed=0;align=center;verticalAlign=middle;shape=mxgraph.arrows2.stylisedArrow;dy=0.6;dx=40;notch=15;feather=0.4;rotation=90;" vertex="1" parent="1">
          <mxGeometry x="-220" y="680" width="78.5" height="30" as="geometry" />
        </mxCell>
        <mxCell id="z7QBV5NxAyAJbgT73YyX-12" value="IRBuilder" style="text;whiteSpace=wrap;fontSize=18;fontStyle=1" vertex="1" parent="1">
          <mxGeometry x="350" y="410" width="250" height="40" as="geometry" />
        </mxCell>
        <mxCell id="z7QBV5NxAyAJbgT73YyX-21" value="IDBContext" style="rounded=1;whiteSpace=wrap;html=1;" vertex="1" parent="1">
          <mxGeometry x="207.5" y="465" width="120" height="60" as="geometry" />
        </mxCell>
        <mxCell id="z7QBV5NxAyAJbgT73YyX-22" value="IRContext" style="rounded=1;whiteSpace=wrap;html=1;" vertex="1" parent="1">
          <mxGeometry x="350" y="465" width="120" height="60" as="geometry" />
        </mxCell>
        <mxCell id="z7QBV5NxAyAJbgT73YyX-23" value="IRLayerBuilder" style="rounded=1;whiteSpace=wrap;html=1;" vertex="1" parent="1">
          <mxGeometry x="350" y="640" width="130" height="50" as="geometry" />
        </mxCell>
        <mxCell id="z7QBV5NxAyAJbgT73YyX-40" value="" style="rounded=1;whiteSpace=wrap;html=1;fillColor=none;dashed=1;" vertex="1" parent="1">
          <mxGeometry x="170" y="820" width="590" height="210" as="geometry" />
        </mxCell>
        <mxCell id="z7QBV5NxAyAJbgT73YyX-77" style="edgeStyle=orthogonalEdgeStyle;rounded=0;orthogonalLoop=1;jettySize=auto;html=1;" edge="1" parent="1" source="z7QBV5NxAyAJbgT73YyX-41" target="z7QBV5NxAyAJbgT73YyX-11">
          <mxGeometry relative="1" as="geometry" />
        </mxCell>
        <mxCell id="z7QBV5NxAyAJbgT73YyX-41" value="ItemDriver" style="text;whiteSpace=wrap;fontSize=18;fontStyle=1" vertex="1" parent="1">
          <mxGeometry x="305" y="780" width="250" height="40" as="geometry" />
        </mxCell>
        <mxCell id="z7QBV5NxAyAJbgT73YyX-42" value="ItemCorpus" style="rounded=1;whiteSpace=wrap;html=1;" vertex="1" parent="1">
          <mxGeometry x="270" y="950" width="370" height="60" as="geometry" />
        </mxCell>
        <mxCell id="z7QBV5NxAyAJbgT73YyX-43" value="Item Evaluator" style="rounded=1;whiteSpace=wrap;html=1;" vertex="1" parent="1">
          <mxGeometry x="190" y="850" width="120" height="60" as="geometry" />
        </mxCell>
        <mxCell id="z7QBV5NxAyAJbgT73YyX-60" value="" style="rounded=1;whiteSpace=wrap;html=1;fillColor=none;dashed=1;" vertex="1" parent="1">
          <mxGeometry x="820" y="580" width="480" height="250" as="geometry" />
        </mxCell>
        <mxCell id="z7QBV5NxAyAJbgT73YyX-61" value="SeedGeneration" style="text;whiteSpace=wrap;fontSize=18;fontStyle=1" vertex="1" parent="1">
          <mxGeometry x="980" y="530" width="250" height="40" as="geometry" />
        </mxCell>
        <mxCell id="z7QBV5NxAyAJbgT73YyX-63" style="edgeStyle=orthogonalEdgeStyle;rounded=0;orthogonalLoop=1;jettySize=auto;html=1;entryX=-0.004;entryY=0.532;entryDx=0;entryDy=0;entryPerimeter=0;" edge="1" parent="1" source="z7QBV5NxAyAJbgT73YyX-1" target="z7QBV5NxAyAJbgT73YyX-40">
          <mxGeometry relative="1" as="geometry" />
        </mxCell>
        <mxCell id="z7QBV5NxAyAJbgT73YyX-64" value="IDBTypeFactory" style="rounded=1;whiteSpace=wrap;html=1;" vertex="1" parent="1">
          <mxGeometry x="497.5" y="465" width="120" height="60" as="geometry" />
        </mxCell>
        <mxCell id="z7QBV5NxAyAJbgT73YyX-65" value="Item Generator" style="rounded=1;whiteSpace=wrap;html=1;" vertex="1" parent="1">
          <mxGeometry x="327.5" y="850" width="120" height="60" as="geometry" />
        </mxCell>
        <mxCell id="z7QBV5NxAyAJbgT73YyX-66" value="Item Replacer" style="rounded=1;whiteSpace=wrap;html=1;" vertex="1" parent="1">
          <mxGeometry x="617.5" y="850" width="120" height="60" as="geometry" />
        </mxCell>
        <mxCell id="z7QBV5NxAyAJbgT73YyX-67" value="IDBSchemaOptDispatcher" style="rounded=1;whiteSpace=wrap;html=1;" vertex="1" parent="1">
          <mxGeometry x="240" y="550" width="162.5" height="40" as="geometry" />
        </mxCell>
        <mxCell id="z7QBV5NxAyAJbgT73YyX-68" value="IDBDataOptDispatcher" style="rounded=1;whiteSpace=wrap;html=1;" vertex="1" parent="1">
          <mxGeometry x="440" y="560" width="187.5" height="30" as="geometry" />
        </mxCell>
        <mxCell id="z7QBV5NxAyAJbgT73YyX-69" value="" style="rounded=1;whiteSpace=wrap;html=1;fillColor=none;dashed=1;" vertex="1" parent="1">
          <mxGeometry x="180" y="460" width="460" height="150" as="geometry" />
        </mxCell>
        <mxCell id="z7QBV5NxAyAJbgT73YyX-71" value="" style="endArrow=classic;html=1;rounded=0;" edge="1" parent="1">
          <mxGeometry width="50" height="50" relative="1" as="geometry">
            <mxPoint x="422" y="610" as="sourcePoint" />
            <mxPoint x="422" y="650" as="targetPoint" />
          </mxGeometry>
        </mxCell>
        <mxCell id="z7QBV5NxAyAJbgT73YyX-72" value="Item Selector" style="rounded=1;whiteSpace=wrap;html=1;" vertex="1" parent="1">
          <mxGeometry x="473.75" y="850" width="120" height="60" as="geometry" />
        </mxCell>
        <mxCell id="z7QBV5NxAyAJbgT73YyX-75" value="JS Lifter" style="rounded=1;whiteSpace=wrap;html=1;" vertex="1" parent="1">
          <mxGeometry x="900" y="605" width="120" height="60" as="geometry" />
        </mxCell>
        <mxCell id="z7QBV5NxAyAJbgT73YyX-78" value="LayerBuilder同样依赖itemdriver" style="text;html=1;align=center;verticalAlign=middle;whiteSpace=wrap;rounded=0;" vertex="1" parent="1">
          <mxGeometry x="440" y="730" width="170" height="30" as="geometry" />
        </mxCell>
        <mxCell id="z7QBV5NxAyAJbgT73YyX-79" value="HTML Template" style="rounded=1;whiteSpace=wrap;html=1;" vertex="1" parent="1">
          <mxGeometry x="1110" y="605" width="120" height="60" as="geometry" />
        </mxCell>
        <mxCell id="z7QBV5NxAyAJbgT73YyX-81" value="HTML Generator" style="rounded=1;whiteSpace=wrap;html=1;" vertex="1" parent="1">
          <mxGeometry x="1005" y="715" width="120" height="60" as="geometry" />
        </mxCell>
      </root>
    </mxGraphModel>
  </diagram>
</mxfile>
